<?xml version="1.0" encoding="UTF-8" standalone="no"?>
<!-- Created with Inkscape (http://www.inkscape.org/) -->

<svg
   xmlns:dc="http://purl.org/dc/elements/1.1/"
   xmlns:cc="http://creativecommons.org/ns#"
   xmlns:rdf="http://www.w3.org/1999/02/22-rdf-syntax-ns#"
   xmlns:svg="http://www.w3.org/2000/svg"
   xmlns="http://www.w3.org/2000/svg"
   xmlns:sodipodi="http://sodipodi.sourceforge.net/DTD/sodipodi-0.dtd"
   xmlns:inkscape="http://www.inkscape.org/namespaces/inkscape"
   width="97.340027mm"
   height="97.336502mm"
   viewBox="0 0 97.340027 97.336502"
   version="1.1"
   id="svg1957"
   inkscape:version="0.92.2 (5c3e80d, 2017-08-06)"
   sodipodi:docname="flo.svg">
  <defs
     id="defs1951" />
  <sodipodi:namedview
     id="base"
     pagecolor="#ffffff"
     bordercolor="#666666"
     borderopacity="1.0"
     inkscape:pageopacity="0.0"
     inkscape:pageshadow="2"
     inkscape:zoom="0.35"
     inkscape:cx="-289.92624"
     inkscape:cy="187.78287"
     inkscape:document-units="mm"
     inkscape:current-layer="layer1"
     showgrid="false"
     inkscape:pagecheckerboard="false"
     fit-margin-top="0"
     fit-margin-left="0"
     fit-margin-right="0"
     fit-margin-bottom="0"
     inkscape:window-width="1920"
     inkscape:window-height="1178"
     inkscape:window-x="2505"
     inkscape:window-y="841"
     inkscape:window-maximized="0" />
  <metadata
     id="metadata1954">
    <rdf:RDF>
      <cc:Work
         rdf:about="">
        <dc:format>image/svg+xml</dc:format>
        <dc:type
           rdf:resource="http://purl.org/dc/dcmitype/StillImage" />
        <dc:title></dc:title>
      </cc:Work>
    </rdf:RDF>
  </metadata>
  <g
     inkscape:label="Layer 1"
     inkscape:groupmode="layer"
     id="layer1"
     transform="translate(-57.054888,-101.18105)">
    <g
       id="g947"
       transform="matrix(1.7624364,0,0,-1.7624364,105.72314,195.51755)"
       style="fill:none;stroke:#000000;stroke-width:3.40437818;stroke-miterlimit:4;stroke-dasharray:none;stroke-opacity:1">
      <path
         d="m 0,0 c -14.288,0 -25.912,11.621 -25.912,25.912 0,14.286 11.624,25.912 25.912,25.912 14.287,0 25.914,-11.626 25.914,-25.912 C 25.914,11.621 14.287,0 0,0"
         style="fill:none;fill-opacity:1;fill-rule:nonzero;stroke:#000000;stroke-width:3.40437818;stroke-miterlimit:4;stroke-dasharray:none;stroke-opacity:1"
         id="path949"
         inkscape:connector-curvature="0" />
    </g>
    <g
       id="g2856"
       transform="translate(214.84513,121.70388)">
      <g
         style="fill:#000000"
         transform="matrix(1.7291764,0,0,-1.7291764,-98.943392,36.38722)"
         id="g959">
        <path
           inkscape:connector-curvature="0"
           id="path961"
           style="fill:#000000;fill-opacity:1;fill-rule:nonzero;stroke:none"
           d="m 0,0 c -3.45,-1.76 -8.307,-1.777 -11.769,0 -0.094,-0.662 -0.035,0.041 -0.348,-1.471 3.787,-1.896 8.679,-1.896 12.463,0 C 0,0.254 0.136,-0.861 0,0" />
      </g>
      <g
         style="fill:#000000"
         transform="matrix(1.7291764,0,0,-1.7291764,-97.063922,4.8306244)"
         id="g963">
        <path
           inkscape:connector-curvature="0"
           id="path965"
           style="fill:#000000;fill-opacity:1;fill-rule:nonzero;stroke:none"
           d="m 0,0 c -0.36,2.292 -3.621,5.175 -6.145,7.131 -0.194,0.153 -0.442,0.236 -0.693,0.26 v 0.005 c -0.045,0.003 -0.092,0.006 -0.136,0.003 -0.045,0.003 -0.086,0 -0.13,-0.003 0,0 0,-0.002 -0.003,-0.005 C -7.355,7.367 -7.604,7.284 -7.801,7.131 -10.321,5.175 -13.588,2.292 -13.948,0 c -0.361,-2.292 0.42,-3.769 0.42,-3.769 3.131,-5.857 3.857,-12.326 3.857,-14.137 1.335,-0.662 4.053,-0.662 5.4,0 -0.012,1.811 0.72,8.28 3.858,14.137 0,0 0.779,1.477 0.413,3.769" />
      </g>
      <g
         style="fill:#000000"
         transform="matrix(1.7291764,0,0,-1.7291764,-117.22975,42.149009)"
         id="g967">
        <path
           inkscape:connector-curvature="0"
           id="path969"
           style="fill:#000000;fill-opacity:1;fill-rule:nonzero;stroke:none"
           d="m 0,0 -1.935,0.852 c 0,0 -1.574,-2.387 -2.212,-2.819 -0.644,-0.437 -1.111,0 -1.111,0 0,0 -0.508,0.324 -1.222,1.348 -0.083,0.129 -0.246,0.135 -0.302,0 -0.585,-1.473 -0.691,-1.986 -0.815,-2.635 -0.128,-0.662 -0.128,-1.182 0.041,-1.648 0.171,-0.397 0.597,-0.899 1.359,-1.041 0.771,-0.141 1.873,-0.196 2.57,0.32 0.691,0.514 0.791,0.572 1.761,1.902 C -0.903,-2.387 0,0 0,0" />
      </g>
      <g
         style="fill:#000000"
         transform="matrix(1.7291764,0,0,-1.7291764,-115.26764,35.637456)"
         id="g971">
        <path
           inkscape:connector-curvature="0"
           id="path973"
           style="fill:#000000;fill-opacity:1;fill-rule:nonzero;stroke:none"
           d="m 0,0 c 0,0 -2.118,0.459 -2.553,1.215 -0.436,0.76 -0.761,1.902 -3.234,3.914 -1.226,0.998 -2.419,0.363 -2.419,0.363 0,0 -0.484,-0.312 -0.525,-0.762 -0.042,-0.447 -0.048,-1.453 -0.704,-2.513 -2.091,-3.233 -4.277,-4.53 -4.815,-4.737 -0.343,-0.128 -0.467,0.137 -0.467,0.137 0,0 -1.179,2.457 -1.438,6.676 -0.157,2.872 0.233,4.472 0.233,4.472 0,0 0.721,3.226 3.214,3.976 0.556,0.201 3.462,0.676 4.945,0 1.82,-0.83 3.022,-1.535 5.169,-4.561 C -0.449,5.156 0,0 0,0" />
      </g>
      <g
         style="fill:#000000"
         transform="matrix(1.7291764,0,0,-1.7291764,-101.01716,47.981529)"
         id="g975">
        <path
           inkscape:connector-curvature="0"
           id="path977"
           style="fill:#000000;fill-opacity:1;fill-rule:nonzero;stroke:none"
           d="m 0,0 c -1.3,2.25 -1.985,2.865 -1.985,2.865 -2.7,-0.318 -2.7,-0.318 -5.4,0 0,0 -0.691,-0.615 -1.991,-2.865 -1.3,-2.25 -0.768,-2.895 0,-4.383 1.025,-1.969 3.799,-4.58 4.15,-4.84 0.139,-0.099 0.287,-0.158 0.432,-0.183 v -0.006 h 0.035 0.071 0.074 0.038 v 0.006 c 0.145,0.025 0.29,0.084 0.429,0.183 0.348,0.26 3.127,2.871 4.147,4.84 C 0.771,-2.895 1.3,-2.25 0,0" />
      </g>
      <g
         style="fill:#000000"
         transform="matrix(1.7291764,0,0,-1.7291764,-101.01716,42.149009)"
         id="g979">
        <path
           inkscape:connector-curvature="0"
           id="path981"
           style="fill:#000000;fill-opacity:1;fill-rule:nonzero;stroke:none"
           d="m 0,0 1.938,0.852 c 0,0 1.571,-2.387 2.215,-2.819 0.638,-0.437 1.111,0 1.111,0 0,0 0.507,0.324 1.216,1.348 0.089,0.129 0.249,0.135 0.305,0 C 7.373,-2.092 7.477,-2.605 7.604,-3.254 7.73,-3.916 7.73,-4.436 7.562,-4.902 7.391,-5.299 6.965,-5.801 6.197,-5.943 5.429,-6.084 4.324,-6.139 3.633,-5.623 2.938,-5.109 2.842,-5.051 1.873,-3.721 0.903,-2.387 0,0 0,0" />
      </g>
      <g
         style="fill:#000000"
         transform="matrix(1.7291764,0,0,-1.7291764,-102.96923,35.637456)"
         id="g983">
        <path
           inkscape:connector-curvature="0"
           id="path985"
           style="fill:#000000;fill-opacity:1;fill-rule:nonzero;stroke:none"
           d="m 0,0 c 0,0 2.189,0.459 2.556,1.215 0.363,0.76 0.753,1.902 3.228,3.914 1.226,0.998 2.419,0.363 2.419,0.363 0,0 0.487,-0.312 0.529,-0.762 0.041,-0.447 0.047,-1.453 0.703,-2.513 2.086,-3.233 4.277,-4.53 4.815,-4.737 0.343,-0.128 0.461,0.137 0.461,0.137 0,0 1.182,2.457 1.444,6.676 0.151,2.872 -0.233,4.472 -0.233,4.472 0,0 -0.727,3.226 -3.217,3.976 -0.553,0.201 -3.459,0.676 -4.942,0 C 5.943,11.911 4.738,11.206 2.594,8.18 0.443,5.156 0,0 0,0" />
      </g>
    </g>
  </g>
</svg>
